<?xml version="1.0" encoding="UTF-8" standalone="no"?>
<svg
   xmlns:dc="http://purl.org/dc/elements/1.1/"
   xmlns:cc="http://creativecommons.org/ns#"
   xmlns:rdf="http://www.w3.org/1999/02/22-rdf-syntax-ns#"
   xmlns:svg="http://www.w3.org/2000/svg"
   xmlns="http://www.w3.org/2000/svg"
   xmlns:sodipodi="http://sodipodi.sourceforge.net/DTD/sodipodi-0.dtd"
   xmlns:inkscape="http://www.inkscape.org/namespaces/inkscape"
   width="97.24mm"
   height="10.993mm"
   version="1.1"
   viewBox="0 0 97.24 10.993"
   id="svg32"
   sodipodi:docname="websocket-ts-logo3-plain.svg"
   inkscape:version="0.92.4 (5da689c313, 2019-01-14)">
  <metadata
     id="metadata38">
    <rdf:RDF>
      <cc:Work
         rdf:about="">
        <dc:format>image/svg+xml</dc:format>
        <dc:type
           rdf:resource="http://purl.org/dc/dcmitype/StillImage" />
        <dc:title></dc:title>
      </cc:Work>
    </rdf:RDF>
  </metadata>
  <defs
     id="defs36" />
  <sodipodi:namedview
     pagecolor="#ffffff"
     bordercolor="#666666"
     borderopacity="1"
     objecttolerance="10"
     gridtolerance="10"
     guidetolerance="10"
     inkscape:pageopacity="0"
     inkscape:pageshadow="2"
     inkscape:window-width="716"
     inkscape:window-height="480"
     id="namedview34"
     showgrid="false"
     inkscape:zoom="3.1236289"
     inkscape:cx="226.28832"
     inkscape:cy="29.609184"
     inkscape:window-x="916"
     inkscape:window-y="486"
     inkscape:window-maximized="0"
     inkscape:current-layer="g30" />
  <g
     transform="translate(-47.669 -97.296)"
     id="g30">
    <g
       stroke="#1e293b"
       stroke-width=".26458"
       aria-label="websocket-ts"
       id="g28">
      <g
         fill="#475569"
         stroke="#1e293b"
         stroke-width=".26458"
         id="g22">
        <path
           d="m47.801 108.01h1.3987l1.7914-4.2306 0.3514-0.92329-0.01378 0.92329 0.11713 4.2306h1.3987l2.9283-7.4552h-1.4952l-1.5779 4.5475-0.31006 0.9095 0.02067-0.90261-0.06201-4.5544h-1.0818l-1.881 4.5682-0.32384 0.86127 0.05512-0.86127 0.22049-4.5682h-1.4883z"
           id="path2"
           style="fill:#ddce23;fill-opacity:1;stroke-width:0.13229167;stroke-miterlimit:4;stroke-dasharray:none" />
        <path
           d="m59.094 108.15q1.0886 0 1.943-0.42719t1.3298-0.96463l-0.70969-0.85438q-0.43408 0.44097-1.0129 0.68213-0.57189 0.23426-1.1851 0.23426-0.44786 0-0.79926-0.15158-0.34451-0.15158-0.565-0.42719-0.22049-0.26183-0.31695-0.59256-0.08957-0.33073-0.0689-0.81993l0.0069-0.0344h5.1676l0.14469-0.70969q0.15848-0.79926 0.07579-1.4745-0.07579-0.67524-0.39274-1.1644-0.32384-0.48232-0.89572-0.75104-0.565-0.2756-1.3711-0.2756-0.72347 0-1.4125 0.2756-0.68902 0.26872-1.2747 0.77171-0.58567 0.50298-1.006 1.2127-0.41341 0.70969-0.58567 1.5847l-0.05512 0.2825q-0.15848 0.76481-0.02756 1.4263 0.1378 0.65457 0.53054 1.1369 0.39274 0.48921 1.0197 0.76481 0.6339 0.27561 1.4607 0.27561zm1.0818-6.3941q0.41341 0 0.69591 0.1447 0.2825 0.1378 0.44786 0.37207 0.16536 0.24115 0.2136 0.56499 0.05512 0.31695-0.0069 0.64079l-0.02756 0.11024h-3.5071q0.16536-0.42719 0.38585-0.76481 0.22738-0.33762 0.50988-0.57877 0.2825-0.23427 0.60634-0.35829 0.33073-0.13092 0.68213-0.13092z"
           id="path4"
           style="fill:#ddce23;fill-opacity:1;stroke-width:0.13229167;stroke-miterlimit:4;stroke-dasharray:none" />
        <path
           d="m71.386 104.36 0.02756-0.1447q0.13091-0.6339 0.12402-1.1989 0-0.565-0.12402-1.0266-0.10335-0.33073-0.26183-0.60634-0.15848-0.28249-0.39963-0.47542-0.27561-0.23427-0.65457-0.35829-0.37896-0.13091-0.86127-0.13091-0.36518 0-0.69591 0.0758-0.32384 0.0689-0.61323 0.21359-0.22049 0.11025-0.42719 0.25494-0.19982 0.1447-0.37896 0.32384l0.7717-3.8585h-1.6468l-2.1153 10.583h1.4883l0.24116-0.81305q0.08957 0.15159 0.19982 0.2825 0.11024 0.12403 0.24116 0.23427 0.24805 0.21359 0.59945 0.32384 0.3514 0.11024 0.80615 0.11024 0.44786 0 0.85438-0.11713 0.40652-0.11025 0.75792-0.31695 0.43408-0.25494 0.78548-0.64079t0.61323-0.86127q0.22738-0.39963 0.39274-0.86817 0.17225-0.46853 0.27561-0.98529zm-1.6192-0.1447-0.02756 0.1447q-0.06201 0.31005-0.15848 0.59944-0.08957 0.28939-0.2067 0.53744-0.15158 0.33073-0.35829 0.59944-0.20671 0.26183-0.48231 0.43409-0.2067 0.12402-0.44786 0.19981-0.24116 0.0689-0.52366 0.0689-0.31006 0-0.54432-0.0758-0.23427-0.0827-0.39963-0.22048-0.14469-0.13092-0.24805-0.29628-0.10335-0.17226-0.15847-0.37896l0.62012-3.0868q0.11713-0.17914 0.26183-0.33073 0.14469-0.15847 0.31695-0.27561 0.23427-0.17225 0.51676-0.26182 0.28939-0.0965 0.62701-0.0965 0.27561 0 0.48231 0.062 0.20671 0.062 0.35829 0.18603 0.22738 0.17915 0.33073 0.44097 0.10335 0.25494 0.13091 0.57189 0.02067 0.26183-0.0069 0.565-0.02067 0.29627-0.08268 0.61322z"
           id="path6"
           style="fill:#ddce23;fill-opacity:1;stroke-width:0.13229167;stroke-miterlimit:4;stroke-dasharray:none" />
        <path
           d="m77.842 105.99q-0.04134 0.17915-0.15158 0.33073-0.10335 0.14469-0.28939 0.26872-0.22049 0.15158-0.55811 0.24115-0.33762 0.0896-0.76481 0.0896-0.31695 0-0.62012-0.062-0.29628-0.0689-0.50298-0.22049-0.22049-0.14469-0.33762-0.37896-0.11024-0.24116-0.06201-0.58567h-1.5985q-0.09646 0.46165 0.03445 0.90951 0.13091 0.44786 0.4892 0.79237 0.3514 0.3514 0.93018 0.565 0.58567 0.21359 1.3918 0.21359 0.72347 0 1.3436-0.16536 0.62701-0.16537 1.1162-0.46165 0.48231-0.29627 0.79237-0.70969 0.31695-0.41341 0.41341-0.9095 0.10335-0.50988-0.04823-0.88195-0.14469-0.37207-0.4892-0.64767-0.34451-0.26183-0.87505-0.44098-0.53054-0.17914-1.1851-0.30316-0.47542-0.0827-0.77859-0.18604-0.29628-0.10335-0.44786-0.22738-0.17226-0.11713-0.22049-0.26871-0.04134-0.15848 0-0.3514 0.03445-0.18604 0.15847-0.3514 0.12402-0.17226 0.33073-0.29628 0.20671-0.1378 0.49609-0.2136 0.29628-0.0827 0.66835-0.0827 0.40652 0 0.68902 0.11024 0.2825 0.10336 0.44097 0.2825 0.1378 0.15159 0.18604 0.34451 0.04823 0.18604 0.0069 0.39274h1.6468q0.09646-0.50298-0.04134-0.93706-0.13091-0.43409-0.46853-0.75103-0.3514-0.31695-0.9095-0.4961-0.55811-0.18603-1.3022-0.18603-0.69591 0-1.3022 0.17914-0.59945 0.17915-1.0611 0.48921-0.46853 0.31005-0.7717 0.72347-0.29628 0.40652-0.38585 0.86127-0.09646 0.47542 0.04134 0.83371 0.14469 0.35829 0.47542 0.62012 0.33073 0.27561 0.82682 0.46853 0.49609 0.19293 1.1162 0.32384 0.49609 0.0965 0.81993 0.20671 0.32384 0.11024 0.50987 0.23426 0.17226 0.13781 0.22738 0.28939 0.05512 0.15159 0.02067 0.34451z"
           id="path8"
           style="fill:#ddce23;fill-opacity:1;stroke-width:0.13229167;stroke-miterlimit:4;stroke-dasharray:none" />
        <path
           d="m81.48 104.22-0.02756 0.1447q-0.16536 0.81993-0.0689 1.509 0.09646 0.68902 0.44097 1.1989 0.34451 0.50988 0.93018 0.79926 0.59256 0.28939 1.4125 0.28939 0.81304 0 1.5158-0.28939 0.7028-0.28938 1.2402-0.79926 0.54432-0.50987 0.9164-1.1989 0.37207-0.68902 0.53744-1.509l0.02756-0.1447q0.16536-0.81304 0.0689-1.5021-0.09646-0.69591-0.43408-1.2058-0.34451-0.50988-0.93707-0.79927-0.58567-0.28938-1.4056-0.28938t-1.5158 0.28938q-0.69591 0.28939-1.2402 0.79927-0.55122 0.50987-0.92329 1.2058-0.37207 0.68902-0.53744 1.5021zm1.6192 0.1447 0.02756-0.1447q0.09646-0.4892 0.28939-0.93706 0.19982-0.44787 0.49609-0.78549 0.28939-0.33762 0.66835-0.53743 0.38585-0.19982 0.85438-0.19982 0.47542 0 0.7717 0.19982 0.30317 0.19981 0.46164 0.53743 0.14469 0.33762 0.16536 0.78549 0.02067 0.44786-0.07579 0.93706l-0.02756 0.1447q-0.10335 0.50298-0.30317 0.95084-0.19292 0.44786-0.47542 0.78548-0.28939 0.33762-0.67524 0.53744-0.38585 0.19292-0.84749 0.19292-0.47542 0-0.77859-0.19292-0.30317-0.19982-0.45475-0.53744-0.16536-0.33762-0.18604-0.78548-0.01378-0.44786 0.08957-0.95084z"
           id="path10"
           style="fill:#ddce23;fill-opacity:1;stroke-width:0.13229167;stroke-miterlimit:4;stroke-dasharray:none" />
        <path
           d="m92.966 106.83q-0.51676 0-0.81993-0.2067-0.30317-0.20671-0.43408-0.55122-0.1378-0.33073-0.1378-0.76481 0-0.44097 0.09646-0.89572l0.04823-0.24116q0.08957-0.44786 0.26183-0.88194 0.17225-0.43409 0.45475-0.77171 0.26183-0.33761 0.64768-0.54432 0.38585-0.2136 0.90262-0.2136 0.33762 0 0.60634 0.11714 0.26872 0.11713 0.44097 0.31695 0.16536 0.19981 0.22738 0.46853 0.06201 0.26872 0 0.57188h1.5503q0.13091-0.62011 0-1.1369-0.12402-0.51676-0.46164-0.88883-0.34451-0.37207-0.88194-0.57878-0.53054-0.2067-1.2058-0.2067-0.85438 0-1.5572 0.30317-0.7028 0.29627-1.2402 0.80615-0.53744 0.50987-0.88883 1.192-0.3514 0.68213-0.50298 1.4469l-0.04823 0.24116q-0.15847 0.7717-0.07579 1.4538 0.08957 0.67524 0.4203 1.1851 0.32384 0.50987 0.9095 0.81304 0.58567 0.29628 1.4469 0.29628 0.62012 0 1.2196-0.19981 0.60634-0.20671 1.1093-0.565 0.49609-0.34451 0.8406-0.81993 0.3514-0.48232 0.45475-1.0266h-1.5503q-0.06201 0.2825-0.23427 0.51676-0.17226 0.23427-0.4203 0.40652-0.25494 0.17226-0.565 0.26872-0.30317 0.0896-0.61323 0.0896z"
           id="path12"
           style="fill:#ddce23;fill-opacity:1;stroke-width:0.13229167;stroke-miterlimit:4;stroke-dasharray:none" />
        <path
           d="m101.16 104.77 1.7294 3.2453h2.0395l-2.4529-4.3477 3.5209-3.1075h-1.9844l-2.6941 2.3427-0.83371 0.75792 1.2471-6.2287h-1.6536l-2.1153 10.583h1.6536l0.48231-2.3978z"
           id="path14"
           style="fill:#ddce23;fill-opacity:1;stroke-width:0.13229167;stroke-miterlimit:4;stroke-dasharray:none" />
        <path
           d="m109.86 108.15q1.0886 0 1.943-0.42719 0.85439-0.42719 1.3298-0.96463l-0.70969-0.85438q-0.43408 0.44097-1.0129 0.68213-0.57188 0.23426-1.1851 0.23426-0.44786 0-0.79926-0.15158-0.34451-0.15158-0.565-0.42719-0.22048-0.26183-0.31695-0.59256-0.0896-0.33073-0.0689-0.81993l7e-3 -0.0344h5.1676l0.14469-0.70969q0.15847-0.79926 0.0758-1.4745-0.0758-0.67524-0.39274-1.1644-0.32384-0.48232-0.89572-0.75104-0.565-0.2756-1.3712-0.2756-0.72347 0-1.4125 0.2756-0.68902 0.26872-1.2747 0.77171-0.58566 0.50298-1.006 1.2127-0.41342 0.70969-0.58567 1.5847l-0.0551 0.2825q-0.15848 0.76481-0.0276 1.4263 0.1378 0.65457 0.53054 1.1369 0.39274 0.48921 1.0198 0.76481 0.6339 0.27561 1.4607 0.27561zm1.0818-6.3941q0.41341 0 0.69591 0.1447 0.2825 0.1378 0.44786 0.37207 0.16537 0.24115 0.2136 0.56499 0.0551 0.31695-7e-3 0.64079l-0.0276 0.11024h-3.5071q0.16536-0.42719 0.38585-0.76481 0.22738-0.33762 0.50987-0.57877 0.2825-0.23427 0.60634-0.35829 0.33073-0.13092 0.68213-0.13092z"
           id="path16"
           style="fill:#ddce23;fill-opacity:1;stroke-width:0.13229167;stroke-miterlimit:4;stroke-dasharray:none" />
        <path
           d="m120.03 98.738h-1.6536l-0.36518 1.819h-1.8052l-0.24116 1.2333h1.8052l-0.73725 3.6656q-0.14469 0.71658-0.0551 1.2264 0.0896 0.50987 0.35829 0.83371 0.27561 0.33073 0.71658 0.48921 0.44097 0.15158 1.006 0.15158 0.31005 0 0.627-0.0345 0.32384-0.0276 0.62012-0.0827 0.30317-0.0551 0.565-0.13092 0.26871-0.0827 0.47542-0.19292l0.0482-1.1369q-0.13091 0.0276-0.32384 0.0689-0.18603 0.0344-0.39963 0.062-0.22049 0.0344-0.45475 0.0551-0.22738 0.0207-0.44097 0.0207-0.29628 0-0.53055-0.0689t-0.38585-0.23427q-0.14469-0.15847-0.19293-0.43408-0.0413-0.2825 0.0414-0.69591l0.71658-3.5622h2.8043l0.24116-1.2333h-2.8043z"
           id="path18"
           style="fill:#ddce23;fill-opacity:1;stroke-width:0.13229167;stroke-miterlimit:4;stroke-dasharray:none" />
        <path
           d="m129.32 104.27 0.26183-1.3367h-5.5466l-0.26183 1.3367z"
           id="path20"
           style="fill:#a3a3a3;fill-opacity:1;stroke-width:0.13229167;stroke-miterlimit:4;stroke-dasharray:none" />
      </g>
      <path
         d="m134.95 98.738h-1.6536l-0.36518 1.819h-1.8052l-0.24116 1.2333h1.8052l-0.73725 3.6656q-0.14469 0.71658-0.0551 1.2264 0.0896 0.50987 0.35829 0.83371 0.27561 0.33073 0.71658 0.48921 0.44097 0.15158 1.006 0.15158 0.31005 0 0.627-0.0345 0.32384-0.0276 0.62012-0.0827 0.30317-0.0551 0.565-0.13092 0.26871-0.0827 0.47542-0.19292l0.0482-1.1369q-0.13091 0.0276-0.32384 0.0689-0.18603 0.0344-0.39963 0.062-0.22049 0.0344-0.45475 0.0551-0.22738 0.0207-0.44097 0.0207-0.29628 0-0.53055-0.0689t-0.38585-0.23427q-0.14469-0.15847-0.19293-0.43408-0.0413-0.2825 0.0413-0.69591l0.71658-3.5622h2.8043l0.24116-1.2333h-2.8043z"
         fill="#a3a3a3"
         id="path24"
         style="stroke-width:0.13229167;stroke-miterlimit:4;stroke-dasharray:none" />
      <path
         d="m142.53 105.99q-0.0413 0.17915-0.15159 0.33073-0.10335 0.14469-0.28939 0.26872-0.22048 0.15158-0.5581 0.24115-0.33762 0.0896-0.76481 0.0896-0.31695 0-0.62012-0.062-0.29628-0.0689-0.50298-0.22049-0.22049-0.14469-0.33762-0.37896-0.11025-0.24116-0.062-0.58567h-1.5985q-0.0965 0.46165 0.0344 0.90951 0.13092 0.44786 0.48921 0.79237 0.3514 0.3514 0.93017 0.565 0.58567 0.21359 1.3918 0.21359 0.72347 0 1.3436-0.16536 0.627-0.16537 1.1162-0.46165 0.48231-0.29627 0.79237-0.70969 0.31695-0.41341 0.41341-0.9095 0.10335-0.50988-0.0482-0.88195-0.14469-0.37207-0.4892-0.64767-0.34451-0.26183-0.87506-0.44098-0.53054-0.17914-1.1851-0.30316-0.47542-0.0827-0.77859-0.18604-0.29628-0.10335-0.44786-0.22738-0.17226-0.11713-0.22049-0.26871-0.0413-0.15848 0-0.3514 0.0344-0.18604 0.15847-0.3514 0.12403-0.17226 0.33073-0.29628 0.20671-0.1378 0.4961-0.2136 0.29628-0.0827 0.66835-0.0827 0.40652 0 0.68901 0.11024 0.2825 0.10336 0.44098 0.2825 0.1378 0.15159 0.18603 0.34451 0.0482 0.18604 7e-3 0.39274h1.6468q0.0965-0.50298-0.0413-0.93706-0.13092-0.43409-0.46854-0.75103-0.3514-0.31695-0.9095-0.4961-0.55811-0.18603-1.3022-0.18603-0.69591 0-1.3022 0.17914-0.59945 0.17915-1.0611 0.48921-0.46854 0.31005-0.7717 0.72347-0.29628 0.40652-0.38586 0.86127-0.0965 0.47542 0.0413 0.83371 0.14469 0.35829 0.47542 0.62012 0.33073 0.27561 0.82682 0.46853 0.4961 0.19293 1.1162 0.32384 0.4961 0.0965 0.81994 0.20671 0.32383 0.11024 0.50987 0.23426 0.17225 0.13781 0.22738 0.28939 0.0551 0.15159 0.0207 0.34451z"
         fill="#a3a3a3"
         id="path26"
         style="stroke-width:0.13229167;stroke-miterlimit:4;stroke-dasharray:none" />
    </g>
  </g>
</svg>
